<?xml version="1.0" encoding="UTF-8" standalone="no"?>
<!-- Created with Inkscape (http://www.inkscape.org/) -->

<svg
   width="30"
   height="30"
   viewBox="0 0 7.9374997 7.9375005"
   version="1.1"
   id="svg5"
   inkscape:version="1.1 (c4e8f9e, 2021-05-24)"
   sodipodi:docname="logo.svg"
   inkscape:export-filename="/Users/leafac/Code/notestrator/logo@2x.png"
   inkscape:export-xdpi="96"
   inkscape:export-ydpi="96"
   xmlns:inkscape="http://www.inkscape.org/namespaces/inkscape"
   xmlns:sodipodi="http://sodipodi.sourceforge.net/DTD/sodipodi-0.dtd"
   xmlns="http://www.w3.org/2000/svg"
   xmlns:svg="http://www.w3.org/2000/svg">
  <sodipodi:namedview
     id="namedview7"
     pagecolor="#000000"
     bordercolor="#666666"
     borderopacity="1.0"
     inkscape:pageshadow="2"
     inkscape:pageopacity="0"
     inkscape:pagecheckerboard="0"
     inkscape:document-units="mm"
     showgrid="false"
     inkscape:zoom="1"
     inkscape:cx="-100.5"
     inkscape:cy="25.5"
     inkscape:window-width="1280"
     inkscape:window-height="667"
     inkscape:window-x="0"
     inkscape:window-y="25"
     inkscape:window-maximized="0"
     inkscape:current-layer="layer1"
     units="px" />
  <defs
     id="defs2" />
  <g
     inkscape:label="Layer 1"
     inkscape:groupmode="layer"
     id="layer1">
    <g
       style="display:inline;fill:#ffffff"
       id="g699"
       transform="scale(0.49609375)">
      <path
         d="m 2.5,4 a 0.5,0.5 0 1 0 0,-1 0.5,0.5 0 0 0 0,1 z m 2,-0.5 a 0.5,0.5 0 1 1 -1,0 0.5,0.5 0 0 1 1,0 z m 1,0.5 a 0.5,0.5 0 1 0 0,-1 0.5,0.5 0 0 0 0,1 z"
         id="path687"
         style="fill:#ffffff" />
      <path
         d="M 2,1 A 2,2 0 0 0 0,3 v 10 a 2,2 0 0 0 2,2 h 12 a 2,2 0 0 0 2,-2 V 3 A 2,2 0 0 0 14,1 Z M 15,3 V 5 H 1 V 3 A 1,1 0 0 1 2,2 h 12 a 1,1 0 0 1 1,1 z M 2,14 A 1,1 0 0 1 1,13 V 6 h 14 v 7 a 1,1 0 0 1 -1,1 z"
         id="path689"
         style="fill:#ffffff" />
    </g>
    <g
       style="display:inline;fill:#ffffff"
       id="g1324"
       transform="matrix(0.23751414,-0.11658203,0.11658203,0.23751414,1.0223559,4.0081973)">
      <path
         fill-rule="evenodd"
         d="m 8,16 a 6,6 0 0 0 6,-6 C 14,8.345 12.878,7.096 11.568,5.638 10.254,4.176 8.75,2.503 8,0 8,0 2,5.686 2,10 a 6,6 0 0 0 6,6 z M 6.646,4.646 C 6.27,5.023 5.374,6.135 4.553,7.776 l 0.894,0.448 c 0.78,-1.559 1.616,-2.58 1.907,-2.87 z"
         id="path1315"
         style="fill:#ffffff" />
    </g>
  </g>
</svg>
